<?xml version="1.0" standalone="no"?><!DOCTYPE svg PUBLIC "-//W3C//DTD SVG 1.1//EN" "http://www.w3.org/Graphics/SVG/1.1/DTD/svg11.dtd"><svg width="100%" height="100%" viewBox="0 0 704 570" version="1.1" xmlns="http://www.w3.org/2000/svg" xmlns:xlink="http://www.w3.org/1999/xlink" xml:space="preserve" style="fill-rule:evenodd;clip-rule:evenodd;stroke-linejoin:round;stroke-miterlimit:1.41421;"><g><path d="M57.707,44.975c0,-13.245 -7.855,-17.323 -15.688,-17.323l-10.689,0l0,36.234l10.689,0c7.694,0 15.688,-4.128 15.688,-17.345l0,-1.566ZM37.657,0.425c22.556,0 47.489,9.183 47.489,40.844l0,9.006c0,16.389 -7.883,26.361 -17.933,31.872l20.844,65.722l-29.733,0l-16.1,-56.794l-10.894,0l0,56.794l-28.189,0l0,-147.444l34.516,0Z" style="fill:#1d191c;fill-rule:nonzero;"/><path d="M132.013,27.774l0,31.839l33.539,0l0,27.372l-33.539,0l0,33.5l35.644,0l0,27.383l-63.833,0l0,-147.478l63.833,0l0,27.384l-35.644,0Z" style="fill:#1d191c;fill-rule:nonzero;"/><path d="M275.296,0.392l-29.6,147.472l-36.655,0l-29.45,-147.472l28.483,0l19.383,102.694l19.356,-102.694l28.483,0Z" style="fill:#1d191c;fill-rule:nonzero;"/><path d="M317.18,98.561c0,17.333 5.134,23.611 14.184,23.611c8.788,0 14.4,-6.278 14.4,-23.611l0,-98.167l28.177,0l0,99.667c0,39.011 -21.927,49.483 -42.577,49.483c-21.062,0 -42.362,-10.694 -42.362,-49.483l0,-99.667l28.189,0l-0.011,98.167Z" style="fill:#1d191c;fill-rule:nonzero;"/><path d="M418.938,27.774l0,31.839l33.528,0l0,27.372l-33.528,0l0,33.5l35.633,0l0,27.383l-63.811,0l0,-147.478l63.811,0l0,27.384l-35.633,0Z" style="fill:#1d191c;fill-rule:nonzero;"/><path d="M118.58,210.434l0,147.461l-27.289,0l0,-82.189l-22.106,82.189l-17.144,0l-22.1,-82.189l0,82.189l-27.289,0l0,-147.472l34.778,0l23.194,87.528l23.178,-87.517l34.778,0Z" style="fill:#1d191c;fill-rule:nonzero;"/><path d="M185.691,165.007l-19.844,33.945l-18.467,0l11.806,-33.945l26.505,0ZM200.308,210.424l0,27.383l-35.633,0l0,31.828l33.516,0l0,27.384l-33.516,0l0,33.494l35.633,0l0,27.383l-63.833,0l0,-147.472l63.833,0Z" style="fill:#1d191c;fill-rule:nonzero;"/><path d="M269.47,262.764c0,-17.544 -5.817,-24.961 -14.606,-24.961l-12.466,0l0,92.711l12.466,0c8.789,0 14.606,-7.417 14.606,-25.105l0,-42.645ZM254.864,210.425c20.661,0 42.784,10.306 42.784,50.984l0,45.505c0,40.678 -22.123,50.983 -42.784,50.983l-40.655,0l0,-147.472l40.655,0Z" style="fill:#1d191c;fill-rule:nonzero;"/><rect x="314.912" y="210.421" width="29.178" height="147.472" style="fill:#1d191c;fill-rule:nonzero;"/><path d="M359.704,259.517c0,-38.977 22.233,-50.983 43.316,-50.983c20.389,0 41.917,11.495 42.45,49.583l0,4.567l-28.194,0l-0.061,-3.822c-0.611,-15.845 -5.745,-22.945 -14.195,-22.945c-9.05,0 -14.378,7.4 -14.378,24.956l0,46.217c0,17.7 5.328,25.111 14.378,25.111c8.4,0 13.478,-7.045 14.195,-22.856l0.061,-4.066l28.194,0l0,4.588c-0.478,38.156 -22.061,49.712 -42.45,49.712c-21.083,0 -43.305,-12 -43.305,-50.989l-0.011,-49.073Z" style="fill:#1d191c;fill-rule:nonzero;"/><path d="M510.778,296.996l-9.622,-54.628l-9.778,54.628l19.4,0ZM514.045,325.246l-25.673,0l-6.727,32.65l-28.2,0l29.622,-147.472l36.033,0l29.756,147.472l-28.184,0l-6.627,-32.65Z" style="fill:#1d191c;fill-rule:nonzero;"/><path d="M625.448,330.514l0,27.383l-61.967,0l0,-147.472l28.189,0l0,120.089l33.778,0Z" style="fill:#1d191c;fill-rule:nonzero;"/><path d="M667.929,237.805l0,31.828l33.538,0l0,27.383l-33.538,0l0,33.5l35.644,0l0,27.384l-63.833,0l0,-147.478l63.833,0l0,27.383l-35.644,0Z" style="fill:#1d191c;fill-rule:nonzero;"/><path d="M27.716,521.57c0.067,14.239 6.889,20.666 16.005,20.666c11.156,0 15.85,-7.239 15.85,-17.355c0,-12.806 -6.744,-16.122 -22.622,-19.289c-13.15,-2.589 -33.789,-10.628 -33.789,-40.733c0,-35.134 21.05,-46.295 41.506,-46.295c20.072,0 40.916,11.183 40.916,48.45l-27.127,0c-0.023,-14.039 -5.817,-21.078 -13.789,-21.078c-8.411,0 -13.328,6.873 -13.328,17.123c0.189,12.761 10.345,14.45 19.589,16.194c27.811,5.15 36.839,23.394 36.839,42.783c0,36.189 -20.878,47.573 -44.056,47.573c-21.378,0 -42.905,-11.517 -43.283,-48.039l27.289,0Z" style="fill:#1d191c;fill-rule:nonzero;"/><path d="M129.691,518.621c0,17.322 5.144,23.611 14.194,23.611c8.767,0 14.395,-6.289 14.395,-23.611l0,-98.156l28.194,0l0,99.667c0,38.994 -21.944,49.478 -42.589,49.478c-21.061,0 -42.372,-10.689 -42.372,-49.478l0,-99.667l28.178,0l0,98.156Z" style="fill:#1d191c;fill-rule:nonzero;"/><rect x="203.901" y="420.466" width="29.189" height="147.461" style="fill:#1d191c;fill-rule:nonzero;"/><path d="M273.56,521.57c0.067,14.239 6.889,20.666 16.006,20.666c11.133,0 15.861,-7.239 15.861,-17.355c0,-12.806 -6.756,-16.122 -22.633,-19.289c-13.161,-2.589 -33.789,-10.628 -33.789,-40.733c0,-35.134 21.072,-46.295 41.528,-46.295c20.049,0 40.894,11.183 40.894,48.45l-27.117,0c-0.044,-14.039 -5.827,-21.078 -13.8,-21.078c-8.433,0 -13.316,6.873 -13.316,17.123c0.177,12.761 10.344,14.45 19.555,16.194c27.833,5.15 36.85,23.394 36.85,42.783c0,36.189 -20.878,47.573 -44.033,47.573c-21.389,0 -42.917,-11.517 -43.306,-48.039l27.3,0Z" style="fill:#1d191c;fill-rule:nonzero;"/><path d="M371.922,521.57c0.078,14.239 6.911,20.666 16.017,20.666c11.155,0 15.872,-7.239 15.872,-17.355c0,-12.806 -6.761,-16.122 -22.645,-19.289c-13.138,-2.589 -33.789,-10.628 -33.789,-40.733c0,-35.134 21.05,-46.295 41.528,-46.295c20.028,0 40.884,11.183 40.884,48.45l-27.117,0c-0.022,-14.039 -5.806,-21.078 -13.767,-21.078c-8.444,0 -13.35,6.873 -13.35,17.123c0.195,12.761 10.345,14.45 19.6,16.194c27.817,5.15 36.817,23.394 36.817,42.783c0,36.189 -20.867,47.573 -44.033,47.573c-21.389,0 -42.917,-11.517 -43.295,-48.039l27.278,0Z" style="fill:#1d191c;fill-rule:nonzero;"/><path d="M475.188,447.836l0,31.828l33.528,0l0,27.383l-33.528,0l0,33.506l35.633,0l0,27.378l-63.833,0l0,-147.467l63.833,0l0,27.372l-35.633,0Z" style="fill:#1d191c;fill-rule:nonzero;"/></g></svg>

